<svg xmlns="http://www.w3.org/2000/svg" width="214.5" height="27" viewBox="0 0 214.5 27">
  <g id="Group_293" data-name="Group 293" transform="translate(-62.5 -552)">
    <text id="Copy_Referral_Code" data-name="Copy Referral Code" transform="translate(101 572)" fill="#0b7f42" font-size="18" font-family="Poppins-Regular, Poppins"><tspan x="0" y="0">Copy Referral Code</tspan></text>
    <g id="Icon_feather-copy" data-name="Icon feather-copy" transform="translate(61 550.5)">
      <path id="Path_80" data-name="Path 80" d="M15.9,13.5H26.7a2.4,2.4,0,0,1,2.4,2.4V26.7a2.4,2.4,0,0,1-2.4,2.4H15.9a2.4,2.4,0,0,1-2.4-2.4V15.9A2.4,2.4,0,0,1,15.9,13.5Z" transform="translate(-2.1 -2.1)" fill="none" stroke="#0b7f42" stroke-linecap="round" stroke-linejoin="round" stroke-width="3"/>
      <path id="Path_81" data-name="Path 81" d="M6.6,18.6H5.4A2.4,2.4,0,0,1,3,16.2V5.4A2.4,2.4,0,0,1,5.4,3H16.2a2.4,2.4,0,0,1,2.4,2.4V6.6" fill="none" stroke="#0b7f42" stroke-linecap="round" stroke-linejoin="round" stroke-width="3"/>
    </g>
  </g>
</svg>
